<svg xmlns="http://www.w3.org/2000/svg" viewBox="0 0 1000 1000" version="1.1">
    <!-- 矩形 -->
    <rect x="20" y="20" width="100" height="50" style="fill:rgb(0,0,255);stroke-width:1;stroke:rgb(0,0,0)" />
    <!-- 圆形 -->
    <circle cx="200" cy="60" r="40" stroke="black" stroke-width="2" fill="red" />
    <!-- 椭圆 -->
    <ellipse cx="320" cy="60" rx="50" ry="25" style="fill:yellow;stroke:purple;stroke-width:2" />
    <!-- 直线 -->
    <line x1="20" y1="100" x2="120" y2="180" style="stroke:rgb(255,0,0);stroke-width:2" />
    <!-- 多边形 -->
    <polygon points="270,110 350,170 320,220 220,210 200,160" style="fill:lime;stroke:purple;stroke-width:1" />
    <!-- 多段线 -->
    <polyline points="20,220 40,225 60,240 80,320 120,340 180,320" style="fill:none;stroke:black;stroke-width:3" />
    <!-- 路径 -->
    <path d="M 210 30 C 210 250 25 190 110 150" stroke="blue" stroke-width="2" fill="none" />
    <!-- 虚线 -->
    <path d="M10 400 l215 0" style="fill:none;stroke:black;stroke-width:3;stroke-dasharray:20,10"/>
    <path d="M 10 315
           L 110 215
           A 30 50 0 0 1 162.55 162.45
           L 172.55 152.45
           A 30 50 -45 0 1 215.1 109.9
           L 315 10" stroke="black" fill="green" stroke-width="2" fill-opacity="0.5"/>
</svg>